<?xml version="1.0" encoding="utf-8"?>
<!-- Generator: Adobe Illustrator 16.0.3, SVG Export Plug-In . SVG Version: 6.00 Build 0)  -->
<!DOCTYPE svg PUBLIC "-//W3C//DTD SVG 1.1//EN" "http://www.w3.org/Graphics/SVG/1.1/DTD/svg11.dtd">
<svg version="1.1" id="Capa_1" xmlns="http://www.w3.org/2000/svg" xmlns:xlink="http://www.w3.org/1999/xlink" x="0px" y="0px"
	 width="394.438px" height="192px" viewBox="0 0 394.438 192" enable-background="new 0 0 394.438 192" xml:space="preserve">
<g id="Capa_2">
</g>
<text transform="matrix(1 0 0 1 0.9917 73.1377)" fill="#272A31" font-family="'Lato-Bold'" font-size="94.7043">THE</text>
<text transform="matrix(1 0 0 1 0 144.125)" fill="#272A31" font-family="'Lato-Bold'" font-size="79.9077">DICE</text>
<text transform="matrix(1 0 0 1 1.9561 186.0254)" fill="#272A31" font-family="'Lato-Bold'" font-size="41.6197">PROJECT</text>
<g>
	<path fill="#EC5242" d="M385.398,25.42L239.309,5.194c-3.204-0.443-6.161,1.794-6.605,4.998l-20.226,146.09
		c-0.443,3.204,1.794,6.16,4.998,6.604l146.09,20.227c3.204,0.442,6.16-1.795,6.604-4.999l20.227-146.089
		C390.84,28.821,388.603,25.864,385.398,25.42z M259.805,136.688c-0.81,5.846-6.204,9.93-12.051,9.12s-9.929-6.206-9.12-12.052
		c0.809-5.846,6.204-9.929,12.051-9.119C256.531,125.446,260.615,130.842,259.805,136.688z M266.097,91.196
		c-0.809,5.846-6.205,9.93-12.052,9.121c-5.846-0.81-9.929-6.206-9.12-12.052c0.81-5.846,6.206-9.929,12.051-9.12
		C262.823,79.954,266.906,85.351,266.097,91.196z M272.442,45.416c-0.81,5.846-6.205,9.93-12.051,9.121
		c-5.847-0.81-9.93-6.206-9.121-12.053c0.809-5.846,6.206-9.929,12.051-9.119C269.168,34.174,273.251,39.569,272.442,45.416z
		 M349.666,149.129c-0.809,5.846-6.204,9.93-12.052,9.119c-5.846-0.809-9.929-6.205-9.119-12.051s6.204-9.929,12.05-9.119
		C346.392,137.887,350.475,143.282,349.666,149.129z M356.199,101.942c-0.81,5.847-6.205,9.931-12.053,9.121
		c-5.846-0.81-9.929-6.206-9.118-12.052c0.809-5.846,6.204-9.929,12.05-9.119C352.925,90.701,357.008,96.097,356.199,101.942z
		 M362.303,57.856c-0.81,5.846-6.205,9.93-12.052,9.121c-5.846-0.809-9.929-6.205-9.12-12.051c0.81-5.847,6.205-9.93,12.052-9.12
		S363.112,52.011,362.303,57.856z"/>
</g>
</svg>
