<?xml version="1.0" encoding="utf-8"?>
<!-- Generator: Adobe Illustrator 16.0.3, SVG Export Plug-In . SVG Version: 6.00 Build 0)  -->
<!DOCTYPE svg PUBLIC "-//W3C//DTD SVG 1.1//EN" "http://www.w3.org/Graphics/SVG/1.1/DTD/svg11.dtd">
<svg version="1.1" id="Capa_1" xmlns="http://www.w3.org/2000/svg" xmlns:xlink="http://www.w3.org/1999/xlink" x="0px" y="0px"
	 width="387px" height="386px" viewBox="0 0 387 386" enable-background="new 0 0 387 386" xml:space="preserve">
<g>
	<g>
		<path fill="#D3D3D3" d="M193.676,304.106c-2.571,1.395-3.804,3.566-4.948,5.853c-11.05,22.02-22.218,43.988-31.179,66.987
			c-1.953,5.033-4.866,7.2-10.741,7.169c-41.381-0.31-82.761-0.162-124.12-0.162c-4.814,0-6.232-1.721-4.861-6.435
			c5.022-17.135,11.816-33.681,18.377-50.253c15.234-38.511,30.42-77.05,47.153-114.935c2.617-5.91,0.578-10.497-5.588-12.453
			c-11.89-3.774-24.211-5.192-36.533-6.496c-13.516-1.437-24.762-6.728-32.703-18.138c-9.101-13.09-4.15-29.218,5.49-38.5
			c6.87-6.632,15.504-10.776,23.667-15.543c27.411-16.025,56.216-29.002,86.178-39.401c5.029-1.75,6.956-4.582,7.281-9.454
			c0.935-13.646,4.951-26.377,12.001-38.063c9.131-15.167,21.837-26.147,39.454-29.646c23.112-4.569,41.688,4.144,56.081,22.054
			c10.363,12.894,15.759,28.012,17.109,44.413c0.48,5.925,2.593,9.113,8.5,11.119c36.09,12.292,70.169,28.825,102.331,49.346
			c9.713,6.198,15.72,14.964,16.549,26.389c1.012,13.876-6.938,22.87-18.12,29.662c-8.028,4.877-17.094,5.448-26.07,6.543
			c-9.771,1.208-19.565,2.516-29.003,5.501c-7.146,2.254-8.976,6.512-5.935,13.516c22.382,51.422,43.205,103.456,62.706,156.031
			c1.116,2.993,2.028,6.068,2.766,9.187c0.863,3.698-0.665,5.539-4.429,5.539c-42.562,0.037-85.139-0.017-127.708,0.098
			c-3.646,0-5.372-1.972-6.648-4.671c-1.987-4.205-3.78-8.515-5.533-12.822c-7.961-19.818-18.039-38.624-27.456-57.731
			C196.857,306.936,195.539,305.506,193.676,304.106z"/>
	</g>
</g>
</svg>
