<?xml version="1.0" encoding="utf-8"?>
<!-- Generator: Adobe Illustrator 16.0.3, SVG Export Plug-In . SVG Version: 6.00 Build 0)  -->
<!DOCTYPE svg PUBLIC "-//W3C//DTD SVG 1.1//EN" "http://www.w3.org/Graphics/SVG/1.1/DTD/svg11.dtd">
<svg version="1.1" id="Capa_1" xmlns="http://www.w3.org/2000/svg" xmlns:xlink="http://www.w3.org/1999/xlink" x="0px" y="0px"
	 width="387px" height="386px" viewBox="0 0 387 386" enable-background="new 0 0 387 386" xml:space="preserve">
<g>
	
		<text transform="matrix(1 0 0 1 61.2305 311.0254)" fill="#FFFFFF" stroke="#FFFFFF" stroke-miterlimit="10" font-family="'Lato-Bold'" font-size="119.1503">CON</text>
	
		<text transform="matrix(1 0 0 1 76.7861 125.9927)" fill="#FFFFFF" stroke="#FFFFFF" stroke-miterlimit="10" font-family="'Lato-Bold'" font-size="61.0967">THE</text>
	
		<text transform="matrix(1 0 0 1 66.9736 201.708)" fill="#FFFFFF" stroke="#FFFFFF" stroke-miterlimit="10" font-family="'Lato-Bold'" font-size="67.2509">MEEPLE</text>
	<g>
		<g>
			<path fill-rule="evenodd" clip-rule="evenodd" fill="#FFFFFF" stroke="#FFFFFF" stroke-miterlimit="10" d="M253.995,122.445
				c-0.586,0.318-0.867,0.814-1.128,1.335c-2.52,5.021-5.066,10.03-7.109,15.274c-0.446,1.148-1.109,1.642-2.449,1.635
				c-9.436-0.071-18.871-0.037-28.302-0.037c-1.098,0-1.421-0.392-1.109-1.467c1.146-3.907,2.695-7.68,4.191-11.459
				c3.474-8.781,6.937-17.569,10.752-26.207c0.596-1.348,0.131-2.394-1.274-2.84c-2.711-0.86-5.521-1.184-8.331-1.481
				c-3.082-0.328-5.646-1.534-7.456-4.136c-2.076-2.985-0.947-6.662,1.251-8.779c1.567-1.512,3.536-2.457,5.397-3.544
				c6.25-3.654,12.818-6.613,19.65-8.984c1.146-0.399,1.586-1.045,1.66-2.156c0.213-3.111,1.129-6.014,2.736-8.679
				c2.082-3.458,4.98-5.962,8.996-6.76c5.271-1.042,9.506,0.945,12.789,5.029c2.362,2.94,3.592,6.387,3.9,10.127
				c0.111,1.351,0.592,2.078,1.939,2.535c8.229,2.803,16,6.573,23.333,11.252c2.215,1.413,3.585,3.412,3.774,6.017
				c0.23,3.164-1.582,5.215-4.132,6.764c-1.831,1.112-3.897,1.242-5.944,1.492c-2.229,0.275-4.462,0.573-6.613,1.254
				c-1.63,0.514-2.047,1.485-1.354,3.082c5.103,11.725,9.852,23.59,14.298,35.578c0.255,0.682,0.463,1.384,0.631,2.095
				c0.197,0.843-0.152,1.263-1.01,1.263c-9.705,0.008-19.413-0.004-29.12,0.022c-0.831,0-1.225-0.45-1.515-1.065
				c-0.454-0.959-0.863-1.942-1.262-2.924c-1.816-4.519-4.113-8.807-6.261-13.164C254.721,123.091,254.42,122.764,253.995,122.445z"
				/>
		</g>
		<g>
			<path fill="#FFFFFF" stroke="#FFFFFF" stroke-miterlimit="10" d="M216.998,130.473c-1.131,2.869-2.233,5.749-3.101,8.713
				c-0.312,1.075,0.012,1.467,1.109,1.467c9.431,0,18.866-0.034,28.302,0.037c1.34,0.007,2.003-0.486,2.449-1.635
				c0.945-2.426,1.999-4.801,3.108-7.148c-4.407,1.354-9.085,2.088-13.938,2.088C228.581,133.994,222.529,132.738,216.998,130.473z"
				/>
			<path fill="#FFFFFF" stroke="#FFFFFF" stroke-miterlimit="10" d="M257.344,128.354c1.367,2.736,2.702,5.483,3.842,8.327
				c0.398,0.981,0.808,1.965,1.262,2.924c0.29,0.615,0.684,1.065,1.515,1.065c9.707-0.026,19.415-0.015,29.12-0.022
				c0.857,0,1.207-0.42,1.01-1.263c-0.168-0.711-0.376-1.413-0.631-2.095c-4.342-11.706-8.973-23.288-13.937-34.742
				C275.571,113.646,267.592,122.834,257.344,128.354z"/>
			<path fill="#FFFFFF" stroke="#FFFFFF" stroke-miterlimit="10" d="M280.748,98.564c2.08-0.629,4.236-0.92,6.383-1.188
				c2.047-0.25,4.113-0.38,5.944-1.492c2.55-1.549,4.362-3.6,4.132-6.764c-0.189-2.605-1.56-4.604-3.774-6.017
				c-3.976-2.536-8.081-4.803-12.317-6.797c0.746,3.335,1.141,6.801,1.141,10.357C282.256,90.774,281.73,94.76,280.748,98.564z"/>
		</g>
	</g>
</g>
<circle fill="none" stroke="#FFFFFF" stroke-width="2" stroke-miterlimit="10" cx="193.844" cy="193.209" r="188.438"/>
</svg>
